<svg width="163" height="43" viewBox="0 0 163 43" fill="none" xmlns="http://www.w3.org/2000/svg">
<path d="M46.0488 26.9512C46.166 27.9824 46.7109 28.8027 47.6836 29.4121C48.6328 30.0215 49.8574 30.3262 51.3574 30.3262C52.7402 30.3262 53.8711 30.0215 54.75 29.4121C55.6289 28.8145 56.0684 28.0352 56.0684 27.0742C56.0684 26.2656 55.7285 25.6094 55.0488 25.1055C54.3691 24.6016 53.25 24.1855 51.6914 23.8574L48.3867 23.1543C43.793 22.1934 41.4961 19.7793 41.4961 15.9121C41.4961 13.5215 42.3809 11.5996 44.1504 10.1465C45.9199 8.70508 48.2695 7.98438 51.1992 7.98438C53.9883 7.98438 56.2852 8.69336 58.0898 10.1113C59.8828 11.5293 60.8203 13.3691 60.9023 15.6309H55.9102C55.7812 14.623 55.2949 13.8145 54.4512 13.2051C53.584 12.5957 52.5117 12.291 51.2344 12.291C49.8984 12.291 48.832 12.5781 48.0352 13.1523C47.2266 13.7266 46.8223 14.4941 46.8223 15.4551C46.8223 16.2402 47.1504 16.873 47.8066 17.3535C48.4512 17.834 49.5176 18.2324 51.0059 18.5488L54.0645 19.1992C56.6074 19.7383 58.459 20.582 59.6191 21.7305C60.7793 22.8789 61.3594 24.4375 61.3594 26.4062C61.3594 28.9609 60.4395 30.9766 58.5996 32.4531C56.7715 33.918 54.2637 34.6504 51.0762 34.6504C48.0527 34.6504 45.627 33.959 43.7988 32.5762C41.9707 31.1934 41.0098 29.3184 40.916 26.9512H46.0488ZM77.0742 14.2949C79.5352 14.2949 81.4688 15.1797 82.875 16.9492C84.2812 18.7188 84.9844 21.168 84.9844 24.2969C84.9844 27.4141 84.2871 29.8633 82.8926 31.6445C81.498 33.4141 79.5879 34.2988 77.1621 34.2988C74.2676 34.2988 72.3164 33.209 71.3086 31.0293H70.9922V40.0645H65.877V14.6113H70.834V17.793H71.1504C71.6777 16.7031 72.4629 15.8477 73.5059 15.2266C74.5488 14.6055 75.7383 14.2949 77.0742 14.2949ZM75.334 30.0273C76.7168 30.0273 77.7949 29.5176 78.5684 28.498C79.3418 27.4902 79.7285 26.0898 79.7285 24.2969C79.7285 22.5156 79.3418 21.1211 78.5684 20.1133C77.7832 19.0938 76.7109 18.584 75.3516 18.584C73.9922 18.584 72.9141 19.0938 72.1172 20.1133C71.332 21.1445 70.9395 22.5449 70.9395 24.3145C70.9395 26.084 71.332 27.4785 72.1172 28.498C72.9023 29.5176 73.9746 30.0273 75.334 30.0273ZM89.3262 7.21094H94.4414V34H89.3262V7.21094ZM106.764 30.4492C107.947 30.4492 108.938 30.1152 109.734 29.4473C110.531 28.7793 110.93 27.9531 110.93 26.9688V25.5449L107.01 25.791C104.83 25.9434 103.74 26.7227 103.74 28.1289C103.74 28.8438 104.021 29.4121 104.584 29.834C105.135 30.2441 105.861 30.4492 106.764 30.4492ZM105.076 34.2988C103.201 34.2988 101.678 33.7715 100.506 32.7168C99.3223 31.6387 98.7305 30.2207 98.7305 28.4629C98.7305 26.7168 99.3809 25.3398 100.682 24.332C101.971 23.3359 103.822 22.7676 106.236 22.627L110.93 22.3457V20.7637C110.93 19.0762 109.84 18.2324 107.66 18.2324C105.762 18.2324 104.596 18.8301 104.162 20.0254H99.4512C99.6152 18.2324 100.465 16.8086 102 15.7539C103.523 14.7109 105.504 14.1895 107.941 14.1895C110.496 14.1895 112.477 14.7637 113.883 15.9121C115.277 17.0605 115.975 18.6777 115.975 20.7637V34H111.018V31.4688H110.701C109.635 33.3555 107.76 34.2988 105.076 34.2988ZM120.562 20.3066C120.562 18.4668 121.301 16.9902 122.777 15.877C124.266 14.752 126.217 14.1895 128.631 14.1895C131.092 14.1895 133.025 14.6875 134.432 15.6836C135.826 16.6797 136.594 18.1035 136.734 19.9551H132.006C131.725 18.6074 130.611 17.9336 128.666 17.9336C127.74 17.9336 126.984 18.1211 126.398 18.4961C125.789 18.8828 125.484 19.3809 125.484 19.9902C125.484 20.8809 126.357 21.5254 128.104 21.9238L131.742 22.7148C133.629 23.125 135.006 23.752 135.873 24.5957C136.752 25.4395 137.191 26.582 137.191 28.0234C137.191 29.9453 136.4 31.4922 134.818 32.6641C133.26 33.8359 131.203 34.4219 128.648 34.4219C126.094 34.4219 124.072 33.918 122.584 32.9102C121.096 31.9023 120.264 30.4668 120.088 28.6035H125.08C125.49 29.9863 126.715 30.6777 128.754 30.6777C129.75 30.6777 130.559 30.4902 131.18 30.1152C131.801 29.7285 132.111 29.2246 132.111 28.6035C132.111 27.6895 131.297 27.0566 129.668 26.7051L126.152 25.9141C122.426 25.0938 120.562 23.2246 120.562 20.3066ZM141.568 7.21094H146.596V17.793H146.912C147.357 16.6914 148.125 15.8242 149.215 15.1914C150.305 14.5586 151.564 14.2422 152.994 14.2422C155.162 14.2422 156.844 14.875 158.039 16.1406C159.246 17.4062 159.85 19.1992 159.85 21.5195V34H154.734V22.7324C154.734 20.0137 153.469 18.6543 150.938 18.6543C149.66 18.6543 148.629 19.041 147.844 19.8145C147.07 20.5879 146.684 21.6074 146.684 22.873V34H141.568V7.21094Z" fill="white"/>
<path d="M30 36.5H32.5V34V14C32.5 9.85786 29.1421 6.5 25 6.5H10C5.85786 6.5 2.5 9.85786 2.5 14V29C2.5 33.1421 5.85786 36.5 10 36.5H30Z" stroke="#0EC1D7" stroke-width="5"/>
<path d="M30 25L21 34H30V25Z" fill="#0EC1D7" stroke="#0EC1D7"/>
<path fill-rule="evenodd" clip-rule="evenodd" d="M28 22H19C17.8954 22 17 22.8954 17 24V33L28 22Z" fill="#0EC1D7"/>
</svg>
